<svg width="53" height="121" viewBox="0 0 53 121" fill="none" xmlns="http://www.w3.org/2000/svg">
<path d="M15.36 10.728C15.36 8.296 15.904 6.344 16.992 4.872C18.08 3.432 19.536 2.392 21.36 1.752C23.184 1.144 25.184 0.840001 27.36 0.840001C29.024 0.840001 30.672 1.016 32.304 1.368C33.936 1.752 35.52 2.28 37.056 2.952C38.208 3.432 39.472 4.104 40.848 4.968C42.224 5.832 43.584 6.824 44.928 7.944C46.304 9.064 47.552 10.264 48.672 11.544C49.792 12.856 50.688 14.216 51.36 15.624C52.064 17.032 52.416 18.44 52.416 19.848C52.416 21.544 51.888 22.856 50.832 23.784C49.776 24.744 48.432 25.224 46.8 25.224C45.52 25.224 44.16 24.936 42.72 24.36C41.28 23.816 39.92 23.064 38.64 22.104C37.392 21.144 36.368 20.024 35.568 18.744C34.768 17.496 34.368 16.168 34.368 14.76C34.368 13.864 34.624 13.176 35.136 12.696C35.648 12.216 36.352 11.976 37.248 11.976C37.472 11.976 37.856 12.024 38.4 12.12C38.944 12.216 39.504 12.36 40.08 12.552C40.688 12.744 41.2 12.952 41.616 13.176C42.064 13.4 42.288 13.624 42.288 13.848C42.288 13.976 42.224 14.056 42.096 14.088C42 14.12 41.904 14.136 41.808 14.136C41.104 14.136 40.4 13.944 39.696 13.56C38.992 13.176 38.224 12.984 37.392 12.984C36.752 12.984 36.224 13.16 35.808 13.512C35.392 13.864 35.184 14.376 35.184 15.048C35.184 16.264 35.552 17.4 36.288 18.456C37.056 19.544 38.032 20.504 39.216 21.336C40.4 22.168 41.632 22.824 42.912 23.304C44.224 23.784 45.424 24.024 46.512 24.024C47.792 24.024 48.848 23.624 49.68 22.824C50.544 22.056 50.976 21.016 50.976 19.704C50.976 18.424 50.64 17.128 49.968 15.816C49.328 14.536 48.464 13.288 47.376 12.072C46.32 10.888 45.152 9.768 43.872 8.712C42.592 7.688 41.296 6.792 39.984 6.024C38.704 5.256 37.52 4.648 36.432 4.2C34.992 3.592 33.504 3.112 31.968 2.76C30.464 2.44 28.928 2.28 27.36 2.28C25.504 2.28 23.76 2.536 22.128 3.048C20.528 3.592 19.232 4.488 18.24 5.736C17.28 6.984 16.8 8.664 16.8 10.776L16.8 11.256C16.8 12.728 17.232 14.2 18.096 15.672C18.992 17.144 20.128 18.552 21.504 19.896C22.88 21.24 24.288 22.44 25.728 23.496C27.2 24.584 28.512 25.48 29.664 26.184C30.4 26.632 31.136 27.016 31.872 27.336C32.64 27.688 33.392 28.056 34.128 28.44C34.224 28.504 34.336 28.584 34.464 28.68C34.592 28.776 34.656 28.888 34.656 29.016C34.464 29.08 34.304 29.112 34.176 29.112C33.984 29.112 33.824 29.08 33.696 29.016C32.416 28.6 30.976 27.944 29.376 27.048C27.776 26.152 26.16 25.08 24.528 23.832C22.896 22.584 21.376 21.224 19.968 19.752C18.592 18.312 17.488 16.808 16.656 15.24C15.792 13.704 15.36 12.2 15.36 10.728ZM17.232 32.7611C17.232 32.1531 17.456 31.6411 17.904 31.2251C18.352 30.8411 18.896 30.5371 19.536 30.3131C20.208 30.0891 20.88 29.9291 21.552 29.8331C22.224 29.7691 22.784 29.7371 23.232 29.7371C23.712 29.7371 24.48 29.7851 25.536 29.8811C26.624 30.0091 27.824 30.2011 29.136 30.4571C30.448 30.7131 31.712 31.0331 32.928 31.4171C34.176 31.8011 35.216 32.2491 36.048 32.7611C36.88 33.3051 37.328 33.9291 37.392 34.6331C37.68 34.7291 37.92 34.8731 38.112 35.0651C38.336 35.2571 38.448 35.5131 38.448 35.8331C38.448 36.4731 38.176 37.0331 37.632 37.5131C37.088 37.9931 36.416 38.3931 35.616 38.7131C34.816 39.0331 34.032 39.2731 33.264 39.4331C32.496 39.6251 31.872 39.7211 31.392 39.7211C29.92 39.7211 28.464 39.5771 27.024 39.2891L26.976 39.6731C26.976 40.6011 27.12 41.3211 27.408 41.8331C27.696 42.3451 27.968 42.7451 28.224 43.0331C28.512 43.3211 28.656 43.5611 28.656 43.7531C28.656 43.9451 28.544 44.0411 28.32 44.0411C27.936 44.0411 27.584 43.8331 27.264 43.4171C26.976 43.0331 26.704 42.5531 26.448 41.9771C26.224 41.4011 26.064 40.8411 25.968 40.2971C25.872 39.7531 25.856 39.3371 25.92 39.0491C25.248 38.8891 24.416 38.6171 23.424 38.2331C22.464 37.8811 21.504 37.4331 20.544 36.8891C19.616 36.3771 18.832 35.7691 18.192 35.0651C17.552 34.3611 17.232 33.5931 17.232 32.7611ZM27.984 37.9931C29.104 38.1851 30.24 38.2811 31.392 38.2811C31.648 38.2811 32.08 38.2171 32.688 38.0891C33.328 37.9931 34 37.8331 34.704 37.6091C35.408 37.4171 36.016 37.1771 36.528 36.8891C37.04 36.6011 37.296 36.2971 37.296 35.9771C37.296 35.8171 37.168 35.6891 36.912 35.5931C36.688 35.5291 36.432 35.4811 36.144 35.4491C35.856 35.4491 35.664 35.4491 35.568 35.4491C34.288 35.4491 32.944 35.6411 31.536 36.0251C30.16 36.4411 28.976 37.0971 27.984 37.9931ZM18.48 32.9051C18.48 33.3851 18.8 33.8811 19.44 34.3931C20.112 34.9051 20.912 35.3851 21.84 35.8331C22.8 36.3131 23.712 36.7131 24.576 37.0331C25.44 37.3531 26.08 37.5611 26.496 37.6571C27.328 36.4411 28.448 35.5291 29.856 34.9211C31.264 34.3451 32.704 34.0571 34.176 34.0571C34.816 34.0571 35.424 34.1051 36 34.2011C34.848 33.5291 33.488 32.9691 31.92 32.5211C30.352 32.0731 28.752 31.7371 27.12 31.5131C25.488 31.3211 24 31.2251 22.656 31.2251C22.336 31.2251 21.84 31.2571 21.168 31.3211C20.496 31.4171 19.872 31.5931 19.296 31.8491C18.752 32.1051 18.48 32.4571 18.48 32.9051ZM17.328 44.1311C17.328 43.8431 17.424 43.6511 17.616 43.5551C17.808 43.4591 18.016 43.4111 18.24 43.4111L18.336 43.4111C20.064 43.4111 21.68 43.5391 23.184 43.7951C24.688 44.0511 26.208 44.2911 27.744 44.5151C29.312 44.7711 31.024 44.8991 32.88 44.8991C33.392 44.8991 33.984 44.8671 34.656 44.8031C35.36 44.7711 36.048 44.6591 36.72 44.4671C37.392 44.3071 37.92 44.0511 38.304 43.6991C38.432 43.5711 38.592 43.5071 38.784 43.5071C39.072 43.5071 39.328 43.6351 39.552 43.8911C39.776 44.1471 39.904 44.4191 39.936 44.7071L39.744 45.1391C39.392 45.5231 38.768 45.7951 37.872 45.9551C37.008 46.1151 36.128 46.2111 35.232 46.2431C34.336 46.2751 33.632 46.2911 33.12 46.2911C32.416 46.2911 31.712 46.2751 31.008 46.2431C30.304 46.2111 29.584 46.1631 28.848 46.0991C29.264 46.2591 29.792 46.4831 30.432 46.7711C31.104 47.0591 31.76 47.3951 32.4 47.7791C33.072 48.1951 33.632 48.6271 34.08 49.0751C34.528 49.5551 34.752 50.0671 34.752 50.6111C34.752 51.1551 34.448 51.5711 33.84 51.8591C33.264 52.1471 32.544 52.3391 31.68 52.4351C30.816 52.5631 29.984 52.6431 29.184 52.6751C28.416 52.7071 27.84 52.7231 27.456 52.7231C27.936 52.9151 28.624 53.2191 29.52 53.6351C30.416 54.0831 31.392 54.5951 32.448 55.1711C33.504 55.7791 34.512 56.4191 35.472 57.0911C36.432 57.7631 37.216 58.4191 37.824 59.0591C38.464 59.6991 38.784 60.2911 38.784 60.8351C38.784 61.2831 38.544 61.5551 38.064 61.6511C37.584 61.7791 37.184 61.8431 36.864 61.8431C35.584 61.8431 34.288 61.7151 32.976 61.4591C31.664 61.2351 30.336 60.9951 28.992 60.7391C27.648 60.5151 26.288 60.4031 24.912 60.4031C24.752 60.4031 24.4 60.4031 23.856 60.4031C23.312 60.4351 22.8 60.4991 22.32 60.5951C21.872 60.7231 21.648 60.9311 21.648 61.2191C21.648 61.6991 21.888 62.1951 22.368 62.7071C22.848 63.2191 23.392 63.6831 24 64.0991C24.64 64.5471 25.2 64.9151 25.68 65.2031C26.192 65.5231 26.448 65.7311 26.448 65.8271C26.32 65.9551 26.16 66.0191 25.968 66.0191C25.648 66.0191 25.168 65.8431 24.528 65.4911C23.888 65.1391 23.232 64.6911 22.56 64.1471C21.888 63.6351 21.312 63.1071 20.832 62.5631C20.384 62.0191 20.16 61.5711 20.16 61.2191C20.16 60.6111 20.464 60.1311 21.072 59.7791C21.68 59.4591 22.368 59.2351 23.136 59.1071C23.904 59.0111 24.496 58.9631 24.912 58.9631C26.16 58.9631 27.392 59.0431 28.608 59.2031C29.856 59.3631 31.088 59.5551 32.304 59.7791C32.944 59.9071 33.616 60.0671 34.32 60.2591C35.024 60.4831 35.696 60.5951 36.336 60.5951C36.528 60.5951 36.72 60.5311 36.912 60.4031L36.96 60.3071C36.96 60.1151 36.768 59.8591 36.384 59.5391C36.032 59.2191 35.648 58.9151 35.232 58.6271C34.816 58.3711 34.528 58.1791 34.368 58.0511C32.64 56.8351 30.848 55.8591 28.992 55.1231C27.168 54.3871 25.312 53.5551 23.424 52.6271C23.296 52.5631 23.168 52.4671 23.04 52.3391C22.912 52.2431 22.848 52.1151 22.848 51.9551C22.848 51.6351 23.152 51.4111 23.76 51.2831C24.4 51.1871 25.12 51.1391 25.92 51.1391C26.656 51.1391 27.344 51.1551 27.984 51.1871C28.656 51.2511 29.12 51.2831 29.376 51.2831C29.504 51.2831 29.776 51.2671 30.192 51.2351C30.608 51.2351 31.056 51.2031 31.536 51.1391C32.016 51.1071 32.432 51.0431 32.784 50.9471C33.136 50.8831 33.312 50.7711 33.312 50.6111C33.312 50.2911 33.184 50.0351 32.928 49.8431C32.672 49.6831 32.416 49.5231 32.16 49.3631C30.592 48.4351 28.976 47.6831 27.312 47.1071C25.776 46.5951 24.192 46.2271 22.56 46.0031C20.96 45.7791 19.408 45.3951 17.904 44.8511C17.52 44.7551 17.328 44.5151 17.328 44.1311ZM5.616 69.6259C5.616 69.0179 5.888 68.5059 6.432 68.0899C6.976 67.6739 7.68 67.3539 8.544 67.1299C9.376 66.9059 10.256 66.7299 11.184 66.6019C12.08 66.5059 12.928 66.4419 13.728 66.4099C14.496 66.3779 15.088 66.3619 15.504 66.3619C17.712 66.3619 19.984 66.5219 22.32 66.8419C24.656 67.1619 26.976 67.5779 29.28 68.0899C31.616 68.6019 33.824 69.1459 35.904 69.7219C35.968 69.4659 36.144 69.2739 36.432 69.1459C36.752 69.0499 37.024 69.0019 37.248 69.0019C37.824 69.0019 38.112 69.1939 38.112 69.5779C38.112 69.8019 38.064 70.0579 37.968 70.3459C38.192 70.4419 38.432 70.5379 38.688 70.6339C38.976 70.7619 39.12 70.9699 39.12 71.2579C39.12 71.4499 39.056 71.6259 38.928 71.7859C38.8 71.9459 38.624 72.0259 38.4 72.0259C38.272 72.0259 38.096 71.9779 37.872 71.8819C37.68 71.8179 37.52 71.7539 37.392 71.6899C36.688 72.9059 35.808 74.0259 34.752 75.0499C33.728 76.1059 32.464 76.7139 30.96 76.8739C31.056 77.0019 31.248 77.2579 31.536 77.6419C31.824 78.0579 32.096 78.4579 32.352 78.8419C32.64 79.2579 32.784 79.5139 32.784 79.6099C32.784 79.7699 32.704 79.8499 32.544 79.8499C32.416 79.8499 32.144 79.6419 31.728 79.2259C31.344 78.8099 30.96 78.3619 30.576 77.8819C30.192 77.4019 29.92 77.0819 29.76 76.9219C28.864 76.9219 27.808 76.6979 26.592 76.2499C25.408 75.8339 24.256 75.2579 23.136 74.5219C22.016 73.7859 21.088 72.9379 20.352 71.9779C19.616 71.0179 19.248 70.0259 19.248 69.0019C19.248 68.4579 19.504 68.1859 20.016 68.1859C20.656 68.1859 21.44 68.4579 22.368 69.0019C23.296 69.5779 24.256 70.2659 25.248 71.0659C26.24 71.8979 27.136 72.7139 27.936 73.5139C28.768 74.3139 29.392 74.9699 29.808 75.4819L30.144 75.4819C31.52 75.5459 32.64 75.1139 33.504 74.1859C34.368 73.2579 35.088 72.2339 35.664 71.1139C32.4 70.1219 28.976 69.2899 25.392 68.6179C21.84 67.9459 18.352 67.6099 14.928 67.6099C14.576 67.6099 13.968 67.6259 13.104 67.6579C12.208 67.6899 11.28 67.7699 10.32 67.8979C9.328 68.0579 8.48 68.2819 7.776 68.5699C7.072 68.8899 6.72 69.3219 6.72 69.8659C6.72 70.2819 6.912 70.6499 7.296 70.9699C7.68 71.2899 8.064 71.5779 8.448 71.8339C8.832 72.0899 9.024 72.2979 9.024 72.4579C9.024 72.5859 8.912 72.6499 8.688 72.6499C8.336 72.6499 7.92 72.4739 7.44 72.1219C6.928 71.7699 6.496 71.3539 6.144 70.8739C5.792 70.3939 5.616 69.9779 5.616 69.6259ZM20.352 69.3859C20.352 70.0579 20.64 70.7139 21.216 71.3539C21.824 71.9939 22.56 72.5699 23.424 73.0819C24.32 73.6259 25.2 74.0899 26.064 74.4739C26.928 74.8579 27.616 75.1139 28.128 75.2419C27.936 75.0499 27.568 74.7139 27.024 74.2339C26.512 73.7859 25.904 73.2739 25.2 72.6979C24.528 72.1219 23.856 71.5619 23.184 71.0179C22.544 70.5059 21.968 70.0739 21.456 69.7219C20.944 69.3699 20.608 69.1939 20.448 69.1939C20.384 69.1939 20.352 69.2579 20.352 69.3859ZM16.656 80.7506C16.656 80.2066 16.928 79.8066 17.472 79.5506C17.984 79.2946 18.576 79.1346 19.248 79.0706C19.92 79.0066 20.432 78.9746 20.784 78.9746C22 78.9746 23.28 79.0866 24.624 79.3106C26 79.5346 27.28 79.8226 28.464 80.1746C29.008 80.3346 29.792 80.6226 30.816 81.0386C31.872 81.4546 32.944 81.9506 34.032 82.5266C35.12 83.1346 36.032 83.7746 36.768 84.4466C37.536 85.1506 37.92 85.8546 37.92 86.5586C37.92 87.1026 37.68 87.6946 37.2 88.3346C36.72 88.9746 36.192 89.2946 35.616 89.2946C35.392 89.2946 35.2 89.2146 35.04 89.0546C35.072 89.0866 35.088 89.1666 35.088 89.2946C35.088 89.9026 34.768 90.2066 34.128 90.2066C33.392 90.2066 32.512 90.0946 31.488 89.8706C30.464 89.6786 29.376 89.4706 28.224 89.2466C27.104 89.0226 26.016 88.9106 24.96 88.9106C24.576 88.9106 24.112 88.9426 23.568 89.0066C23.056 89.0706 22.592 89.2146 22.176 89.4386C21.76 89.6946 21.552 90.0946 21.552 90.6386C21.552 91.1506 21.824 91.6946 22.368 92.2706C22.912 92.8466 23.584 93.4066 24.384 93.9506C25.184 94.4946 25.984 95.0066 26.784 95.4866C27.584 95.9666 28.256 96.3666 28.8 96.6866C29.344 97.0386 29.616 97.2786 29.616 97.4066C29.616 97.6306 29.472 97.7426 29.184 97.7426C28.8 97.7426 28.24 97.5666 27.504 97.2146C26.8 96.8946 26.016 96.4626 25.152 95.9186C24.32 95.3746 23.504 94.7666 22.704 94.0946C21.936 93.4546 21.296 92.7986 20.784 92.1266C20.304 91.4866 20.064 90.9106 20.064 90.3986C20.064 89.5666 20.4 88.9266 21.072 88.4786C21.776 88.0626 22.608 87.7746 23.568 87.6146C24.528 87.4866 25.424 87.4226 26.256 87.4226C26.544 87.4226 26.816 87.4226 27.072 87.4226C27.328 87.4226 27.552 87.4386 27.744 87.4706C27.296 87.2786 26.624 87.0066 25.728 86.6546C24.864 86.3026 23.904 85.8866 22.848 85.4066C21.824 84.9586 20.832 84.4626 19.872 83.9186C18.944 83.4066 18.176 82.8786 17.568 82.3346C16.96 81.7906 16.656 81.2626 16.656 80.7506ZM18.672 81.1346C18.672 81.5506 19.056 82.0146 19.824 82.5266C20.592 83.0386 21.568 83.5666 22.752 84.1106C23.968 84.6866 25.264 85.2306 26.64 85.7426C28.016 86.2546 29.312 86.7186 30.528 87.1346C31.776 87.5826 32.8 87.9506 33.6 88.2386C34.432 88.5266 34.88 88.7186 34.944 88.8146L34.896 88.5266C34.896 88.3026 35.008 88.1266 35.232 87.9986C35.488 87.8706 35.728 87.7106 35.952 87.5186C36.176 87.3266 36.288 87.0066 36.288 86.5586C36.288 85.9826 35.952 85.4226 35.28 84.8786C34.608 84.3346 33.792 83.8066 32.832 83.2946C31.904 82.8146 30.992 82.3986 30.096 82.0466C29.2 81.7266 28.528 81.5026 28.08 81.3746C25.872 80.7346 23.6 80.4146 21.264 80.4146C21.136 80.4146 20.848 80.4146 20.4 80.4146C19.984 80.4466 19.584 80.5106 19.2 80.6066C18.848 80.7346 18.672 80.9106 18.672 81.1346ZM17.808 96.8265C17.808 96.6025 17.888 96.4265 18.048 96.2985C18.24 96.2025 18.448 96.1545 18.672 96.1545C20.464 96.1545 22.256 96.2505 24.048 96.4425C25.872 96.6665 27.68 96.7785 29.472 96.7785C29.664 96.7785 30.032 96.7625 30.576 96.7305C31.152 96.7305 31.76 96.6985 32.4 96.6345C33.072 96.6025 33.664 96.5385 34.176 96.4425C34.72 96.3785 35.056 96.2825 35.184 96.1545C35.28 96.0265 35.392 95.8985 35.52 95.7705C35.648 95.6745 35.808 95.6265 36 95.6265C36.192 95.6265 36.336 95.7065 36.432 95.8665C36.56 96.0585 36.624 96.2505 36.624 96.4425C36.624 96.9865 36.368 97.3705 35.856 97.5945C35.376 97.8505 34.784 98.0105 34.08 98.0745C33.376 98.1705 32.704 98.2185 32.064 98.2185C29.056 98.2185 26.032 98.1225 22.992 97.9305C23.344 98.0585 23.968 98.3145 24.864 98.6985C25.76 99.0825 26.768 99.5465 27.888 100.091C29.008 100.635 30.08 101.195 31.104 101.771C32.16 102.379 33.024 102.939 33.696 103.451C34.4 103.963 34.752 104.379 34.752 104.699C34.752 105.147 34.464 105.467 33.888 105.659C33.344 105.883 32.896 105.995 32.544 105.995C31.072 105.995 29.6 105.915 28.128 105.755C26.656 105.627 25.168 105.563 23.664 105.563C23.472 105.563 23.104 105.579 22.56 105.611C22.048 105.675 21.552 105.771 21.072 105.899C20.624 106.059 20.4 106.299 20.4 106.619C20.4 106.875 20.688 107.211 21.264 107.627C21.84 108.043 22.512 108.475 23.28 108.923C24.08 109.371 24.832 109.771 25.536 110.123C26.24 110.475 26.736 110.715 27.024 110.843C27.088 110.875 27.152 110.907 27.216 110.939C27.312 110.971 27.36 111.019 27.36 111.083C27.36 111.243 27.232 111.339 26.976 111.371C26.752 111.403 26.608 111.419 26.544 111.419C26.224 111.419 25.664 111.243 24.864 110.891C24.064 110.539 23.216 110.091 22.32 109.547C21.424 109.035 20.656 108.491 20.016 107.915C19.376 107.371 19.056 106.875 19.056 106.427C19.056 105.787 19.312 105.307 19.824 104.987C20.336 104.699 20.912 104.507 21.552 104.411C22.224 104.315 22.784 104.267 23.232 104.267C24.288 104.267 25.344 104.315 26.4 104.411C27.456 104.539 28.512 104.603 29.568 104.603C29.664 104.603 29.904 104.587 30.288 104.555C30.672 104.555 31.04 104.539 31.392 104.507C31.744 104.475 31.92 104.395 31.92 104.267C31.92 103.947 31.52 103.531 30.72 103.019C29.92 102.539 28.912 102.011 27.696 101.435C26.48 100.891 25.216 100.347 23.904 99.8025C22.624 99.2585 21.472 98.7785 20.448 98.3625C19.424 97.9785 18.736 97.7065 18.384 97.5465C18.256 97.4825 18.128 97.3865 18 97.2585C17.872 97.1625 17.808 97.0185 17.808 96.8265ZM0.480001 108.305C0.480001 107.537 0.752001 106.977 1.296 106.625C1.808 106.273 2.432 106.049 3.168 105.953C3.904 105.825 4.544 105.761 5.088 105.761C6.4 105.761 7.904 105.937 9.6 106.289C11.264 106.609 12.912 107.121 14.544 107.825C16.144 108.529 17.536 109.425 18.72 110.513C19.936 111.601 20.72 112.881 21.072 114.353C21.104 114.449 21.12 114.593 21.12 114.785C21.12 115.425 20.848 115.841 20.304 116.033C19.76 116.257 19.232 116.369 18.72 116.369C18.528 116.369 18.176 116.337 17.664 116.273C17.12 116.209 16.624 116.081 16.176 115.889C15.728 115.729 15.504 115.505 15.504 115.217C15.504 115.089 15.568 114.977 15.696 114.881C15.792 114.817 15.904 114.785 16.032 114.785C16.48 114.785 16.928 114.865 17.376 115.025C17.824 115.185 18.272 115.265 18.72 115.265C19.072 115.265 19.344 115.217 19.536 115.121C19.728 115.057 19.824 114.833 19.824 114.449C19.824 114.193 19.664 113.825 19.344 113.345C19.056 112.865 18.832 112.529 18.672 112.337C17.712 111.185 16.528 110.209 15.12 109.409C13.68 108.641 12.176 108.049 10.608 107.633C9.008 107.249 7.456 107.057 5.952 107.057C5.664 107.057 5.2 107.073 4.56 107.105C3.92 107.137 3.328 107.233 2.784 107.393C2.208 107.585 1.92 107.889 1.92 108.305C1.92 108.881 2.24 109.505 2.88 110.177C3.52 110.849 4.304 111.505 5.232 112.145C6.128 112.785 7.024 113.345 7.92 113.825C8.784 114.305 9.472 114.641 9.984 114.833C12.896 115.889 15.792 116.753 18.672 117.425C21.552 118.097 24.544 118.433 27.648 118.433C28.832 118.433 30.016 118.385 31.2 118.289C30.688 118.097 30.016 117.793 29.184 117.377C28.384 116.993 27.52 116.529 26.592 115.985C25.664 115.473 24.784 114.913 23.952 114.305C23.12 113.729 22.432 113.121 21.888 112.481C21.376 111.873 21.12 111.265 21.12 110.657C21.12 110.273 21.264 109.985 21.552 109.793C21.872 109.633 22.224 109.521 22.608 109.457C23.024 109.425 23.36 109.409 23.616 109.409C23.968 109.409 24.56 109.457 25.392 109.553C26.224 109.649 27.168 109.777 28.224 109.937C29.28 110.097 30.336 110.273 31.392 110.465C32.448 110.657 33.392 110.833 34.224 110.993C35.088 111.185 35.696 111.345 36.048 111.473C36.432 111.633 36.624 111.873 36.624 112.193C36.624 112.417 36.544 112.625 36.384 112.817C36.224 113.009 36.016 113.105 35.76 113.105C34.672 113.105 33.488 112.913 32.208 112.529C30.928 112.177 29.632 111.825 28.32 111.473C27.04 111.121 25.776 110.945 24.528 110.945C24.432 110.945 24.16 110.961 23.712 110.993C23.264 111.025 23.04 111.105 23.04 111.233C23.04 111.297 23.024 111.345 22.992 111.377C22.992 111.409 23.008 111.441 23.04 111.473C23.36 112.337 24.016 113.137 25.008 113.873C26.032 114.609 27.2 115.265 28.512 115.841C29.824 116.449 31.12 116.945 32.4 117.329C33.68 117.745 34.72 118.049 35.52 118.241C35.648 118.273 35.776 118.321 35.904 118.385C36.032 118.449 36.096 118.561 36.096 118.721C36.096 119.009 35.744 119.233 35.04 119.393C34.368 119.585 33.552 119.713 32.592 119.777C31.664 119.873 30.8 119.937 30 119.969C29.232 120.001 28.768 120.017 28.608 120.017C25.216 120.017 21.856 119.617 18.528 118.817C15.2 118.049 11.984 116.977 8.88 115.601C8.304 115.345 7.552 114.945 6.624 114.401C5.696 113.889 4.768 113.281 3.84 112.577C2.88 111.905 2.08 111.185 1.44 110.417C0.800001 109.681 0.480001 108.977 0.480001 108.305Z" fill="#F76934"/>
</svg>
