<svg width="38" height="173" viewBox="0 0 38 173" fill="none" xmlns="http://www.w3.org/2000/svg">
<path d="M35.768 159.592C35.768 160.84 35.416 162.024 34.712 163.144C34.008 164.232 33.112 165.128 32.024 165.832C30.936 166.536 29.816 166.888 28.664 166.888L28.616 166.888C28.008 168.84 26.952 170.2 25.448 170.968C23.944 171.736 22.232 172.12 20.312 172.12C18.488 172.12 16.632 171.8 14.744 171.16C12.824 170.52 11.016 169.624 9.32 168.472C7.592 167.32 6.04 165.992 4.664 164.488C3.288 162.952 2.216 161.288 1.448 159.496C0.647997 157.672 0.247997 155.8 0.247997 153.88C0.247997 151.608 0.711997 149.784 1.64 148.408C2.568 147.032 3.848 146.04 5.48 145.432C7.112 144.792 8.968 144.472 11.048 144.472C12.52 144.472 14.152 144.632 15.944 144.952C17.704 145.272 19.496 145.736 21.32 146.344C23.144 146.92 24.872 147.624 26.504 148.456C28.104 149.256 29.464 150.152 30.584 151.144C31.32 151.784 32.104 152.568 32.936 153.496C33.736 154.392 34.408 155.368 34.952 156.424C35.496 157.448 35.768 158.504 35.768 159.592ZM34.28 159.736C34.28 158.808 34.04 157.88 33.56 156.952C33.08 156.024 32.488 155.16 31.784 154.36C31.048 153.56 30.36 152.888 29.72 152.344C28.6 151.384 27.288 150.504 25.784 149.704C24.248 148.904 22.632 148.216 20.936 147.64C19.24 147.064 17.56 146.616 15.896 146.296C14.2 145.976 12.616 145.816 11.144 145.816C9.416 145.816 7.832 146.072 6.392 146.584C4.92 147.064 3.736 147.864 2.84 148.984C1.944 150.104 1.496 151.64 1.496 153.592C1.496 155.384 1.88 157.128 2.648 158.824C3.416 160.52 4.456 162.104 5.768 163.576C7.048 165.016 8.52 166.28 10.184 167.368C11.816 168.456 13.528 169.304 15.32 169.912C17.112 170.52 18.856 170.824 20.552 170.824C22.024 170.824 23.384 170.536 24.632 169.96C25.88 169.384 26.824 168.392 27.464 166.984C27.112 166.984 26.76 167 26.408 167.032C26.056 167.032 25.72 167.032 25.4 167.032C24.056 167.032 22.536 166.952 20.84 166.792C19.144 166.6 17.432 166.312 15.704 165.928C13.944 165.544 12.312 165.016 10.808 164.344C9.272 163.64 8.008 162.792 7.016 161.8C6.856 161.64 6.776 161.448 6.776 161.224C6.776 161.032 6.84 160.856 6.968 160.696C7.096 160.536 7.272 160.456 7.496 160.456L7.88 160.6C8.872 161.528 10.072 162.312 11.48 162.952C12.888 163.56 14.392 164.056 15.992 164.44C17.592 164.792 19.176 165.048 20.744 165.208C22.312 165.368 23.752 165.448 25.064 165.448C25.512 165.448 25.976 165.448 26.456 165.448C26.936 165.416 27.4 165.384 27.848 165.352L27.896 164.824C27.96 164.088 27.88 163.304 27.656 162.472C27.4 161.608 27.144 160.856 26.888 160.216C26.632 159.544 26.504 159.128 26.504 158.968C26.504 158.776 26.584 158.68 26.744 158.68C27.064 158.776 27.368 159.112 27.656 159.688C27.944 160.264 28.2 160.92 28.424 161.656C28.616 162.392 28.76 163.096 28.856 163.768C28.952 164.44 28.984 164.936 28.952 165.256C29.784 165.096 30.616 164.76 31.448 164.248C32.28 163.704 32.968 163.048 33.512 162.28C34.024 161.48 34.28 160.632 34.28 159.736ZM33.896 141.735C33.896 142.247 33.688 142.663 33.272 142.983C32.856 143.271 32.344 143.495 31.736 143.655C31.096 143.815 30.488 143.927 29.912 143.991C29.304 144.023 28.824 144.039 28.472 144.039C28.152 144.039 27.832 144.039 27.512 144.039C27.192 144.007 26.872 143.975 26.552 143.943C25.56 143.815 24.584 143.639 23.624 143.415C22.632 143.191 21.64 143.015 20.648 142.887C20.136 142.823 19.64 142.775 19.16 142.743C18.68 142.711 18.184 142.679 17.672 142.647C17.512 142.615 17.368 142.567 17.24 142.503C17.08 142.439 17 142.311 17 142.119C17 141.767 17.16 141.559 17.48 141.495C17.768 141.399 18.04 141.351 18.296 141.351C19.448 141.351 20.584 141.463 21.704 141.687C22.824 141.911 23.944 142.135 25.064 142.359C26.184 142.583 27.32 142.695 28.472 142.695C28.6 142.695 28.888 142.695 29.336 142.695C29.752 142.663 30.216 142.615 30.728 142.551C31.208 142.487 31.624 142.391 31.976 142.263C32.328 142.103 32.504 141.911 32.504 141.687C32.504 141.399 32.168 141.031 31.496 140.583C30.824 140.103 30.024 139.623 29.096 139.143C28.136 138.631 27.256 138.183 26.456 137.799C25.624 137.383 25.064 137.111 24.776 136.983C23.784 136.535 22.872 136.247 22.04 136.119C21.208 135.959 20.44 135.847 19.736 135.783C19 135.719 18.28 135.559 17.576 135.303C17.192 135.143 17 134.903 17 134.583C17 134.103 17.288 133.863 17.864 133.863C18.856 133.863 20.056 133.975 21.464 134.199C22.84 134.423 24.2 134.535 25.544 134.535L26.6 134.535C26.824 134.535 27.176 134.535 27.656 134.535C28.104 134.535 28.584 134.503 29.096 134.439C29.608 134.343 30.04 134.215 30.392 134.055C30.744 133.863 30.92 133.591 30.92 133.239C30.92 132.823 30.68 132.407 30.2 131.991C29.72 131.575 29.16 131.191 28.52 130.839C27.88 130.455 27.32 130.135 26.84 129.879C26.36 129.623 26.12 129.431 26.12 129.303C26.12 129.111 26.248 129.015 26.504 129.015C26.792 129.015 27.256 129.175 27.896 129.495C28.504 129.783 29.144 130.167 29.816 130.647C30.488 131.095 31.064 131.575 31.544 132.087C32.024 132.567 32.264 132.983 32.264 133.335C32.264 134.071 31.96 134.631 31.352 135.015C30.744 135.367 29.992 135.623 29.096 135.783C28.2 135.911 27.336 135.975 26.504 135.975C25.64 135.975 24.968 135.975 24.488 135.975C24.872 136.103 25.448 136.311 26.216 136.599C26.952 136.887 27.768 137.223 28.664 137.607C29.528 137.991 30.36 138.407 31.16 138.855C31.96 139.303 32.616 139.783 33.128 140.295C33.64 140.775 33.896 141.255 33.896 141.735ZM34.856 126.764C34.856 126.988 34.776 127.164 34.616 127.292C34.456 127.42 34.264 127.484 34.04 127.484C32.824 127.484 31.608 127.436 30.392 127.34C29.144 127.212 27.912 127.148 26.696 127.148C25.896 127.148 24.888 127.18 23.672 127.244C22.424 127.276 21.208 127.388 20.024 127.58C18.808 127.74 17.88 128.028 17.24 128.444C17.176 128.476 17.128 128.508 17.096 128.54C17.032 128.572 16.968 128.588 16.904 128.588C16.712 128.588 16.584 128.492 16.52 128.3C16.424 128.108 16.376 127.948 16.376 127.82C16.376 127.372 16.632 127.02 17.144 126.764C17.656 126.508 18.312 126.316 19.112 126.188C19.912 126.06 20.744 125.98 21.608 125.948C22.44 125.884 23.208 125.852 23.912 125.852C24.584 125.852 25.048 125.852 25.304 125.852C25.624 125.852 25.928 125.852 26.216 125.852C26.504 125.82 26.808 125.804 27.128 125.804C26.68 125.676 25.992 125.452 25.064 125.132C24.136 124.812 23.112 124.428 21.992 123.98C20.84 123.532 19.752 123.052 18.728 122.54C17.672 121.996 16.808 121.468 16.136 120.956C15.464 120.412 15.128 119.9 15.128 119.42C15.128 118.94 15.432 118.588 16.04 118.364C16.648 118.14 17.304 117.996 18.008 117.932C18.712 117.836 19.24 117.788 19.592 117.788C19.816 117.788 20.2 117.804 20.744 117.836C21.256 117.868 21.736 117.948 22.184 118.076C22.632 118.172 22.856 118.364 22.856 118.652C22.856 118.908 22.568 119.036 21.992 119.036C21.736 119.036 21.496 119.02 21.272 118.988C21.048 118.956 20.872 118.94 20.744 118.94C20.584 118.94 20.216 118.956 19.64 118.988C19.032 119.02 18.456 119.1 17.912 119.228C17.368 119.324 17.096 119.468 17.096 119.66C17.096 119.852 17.288 120.092 17.672 120.38C18.024 120.636 18.456 120.908 18.968 121.196C19.448 121.452 19.928 121.692 20.408 121.916C20.856 122.108 21.176 122.236 21.368 122.3C22.552 122.78 23.896 123.292 25.4 123.836C26.904 124.348 28.424 124.796 29.96 125.18C31.464 125.532 32.872 125.708 34.184 125.708C34.632 125.932 34.856 126.284 34.856 126.764ZM37.736 99.9216C37.736 100.914 37.448 101.746 36.872 102.418C36.328 103.058 35.544 103.378 34.52 103.378C34.264 103.378 33.88 103.314 33.368 103.186C32.824 103.026 32.328 102.834 31.88 102.61C31.4 102.354 31.16 102.082 31.16 101.794C31.16 101.602 31.288 101.506 31.544 101.506C31.832 101.506 32.2 101.666 32.648 101.986C33.064 102.306 33.608 102.466 34.28 102.466C34.888 102.466 35.352 102.29 35.672 101.938C35.992 101.586 36.152 101.122 36.152 100.546C36.152 99.0736 35.832 97.4576 35.192 95.6976C34.552 93.9056 33.704 92.1456 32.648 90.4176C31.592 88.6896 30.424 87.1536 29.144 85.8096C27.832 84.4336 26.504 83.4416 25.16 82.8336C24.712 82.6096 24.296 82.4976 23.912 82.4976C23.208 82.4976 22.776 82.8016 22.616 83.4096C22.424 84.0176 22.328 84.5776 22.328 85.0896C22.328 87.0416 22.44 89.0896 22.664 91.2336C22.888 93.3776 23 95.5216 23 97.6656C23 98.6576 22.856 99.6176 22.568 100.546C22.28 101.442 21.8 102.194 21.128 102.802C20.456 103.378 19.544 103.666 18.392 103.666C16.984 103.666 15.576 103.218 14.168 102.322C12.76 101.426 11.432 100.306 10.184 98.9616C8.93599 97.5856 7.84799 96.1616 6.91999 94.6896C5.96 93.1856 5.24 91.8576 4.75999 90.7056C4.31199 89.5856 3.94399 88.4816 3.65599 87.3936C3.36799 86.2736 3.22399 85.1216 3.22399 83.9376L3.22399 83.2656C3.22399 82.0816 3.39999 80.9136 3.75199 79.7616C4.10399 78.6096 4.69599 77.6496 5.52799 76.8816C6.32799 76.1136 7.41599 75.7296 8.792 75.7296C9.04799 75.7296 9.47999 75.7776 10.088 75.8736C10.664 75.9376 11.208 76.0656 11.72 76.2576C12.2 76.4496 12.44 76.7216 12.44 77.0736C12.44 77.2336 12.344 77.3136 12.152 77.3136C11.736 77.3136 11.32 77.2336 10.904 77.0736C10.488 76.9136 10.072 76.8336 9.656 76.8336C8.504 76.8336 7.56 77.1696 6.824 77.8416C6.088 78.5136 5.54399 79.3456 5.19199 80.3376C4.83999 81.3296 4.66399 82.3376 4.66399 83.3616C4.66399 84.6416 4.90399 86.0816 5.38399 87.6816C5.86399 89.2816 6.53599 90.8816 7.39999 92.4816C8.26399 94.0816 9.28799 95.5696 10.472 96.9456C11.624 98.2896 12.872 99.3776 14.216 100.21C15.56 101.042 16.952 101.458 18.392 101.458C19.096 101.458 19.704 101.25 20.216 100.834C20.696 100.386 21.064 99.8416 21.32 99.2016C21.576 98.5296 21.704 97.8896 21.704 97.2816C21.704 95.1376 21.544 93.0256 21.224 90.9456C20.872 88.8336 20.696 86.7376 20.696 84.6576C20.696 84.0496 20.776 83.4416 20.936 82.8336C21.064 82.2256 21.336 81.7296 21.752 81.3456C22.136 80.9296 22.696 80.7216 23.432 80.7216C24.776 80.7216 26.136 81.1856 27.512 82.1136C28.856 83.0416 30.152 84.2416 31.4 85.7136C32.616 87.1856 33.704 88.8016 34.664 90.5616C35.624 92.2896 36.376 93.9856 36.92 95.6496C37.464 97.2816 37.736 98.7056 37.736 99.9216ZM35 73.1507C35 74.0147 34.616 74.6867 33.848 75.1667C33.08 75.6147 32.152 75.9187 31.064 76.0787C29.944 76.2387 28.904 76.3187 27.944 76.3187C27.496 76.3187 27.096 76.3187 26.744 76.3187C26.36 76.2867 26.04 76.2547 25.784 76.2227L25.784 76.3667C25.784 76.7507 25.64 76.9427 25.352 76.9427C25.192 76.8787 25.064 76.7667 24.968 76.6067C24.84 76.4147 24.76 76.2387 24.728 76.0787C23.32 75.9187 21.88 75.6147 20.408 75.1667C18.936 74.7187 17.608 74.1107 16.424 73.3427L16.136 73.3427C15.816 73.3427 15.624 73.1507 15.56 72.7667C15.4 72.6067 15.224 72.4467 15.032 72.2867C14.808 72.0947 14.696 71.8867 14.696 71.6627C14.696 71.4067 14.808 71.2147 15.032 71.0867C15.224 70.9267 15.432 70.9107 15.656 71.0387C15.784 70.4307 16.04 69.8867 16.424 69.4067C16.776 68.8947 17.304 68.6387 18.008 68.6387C18.936 68.6387 19.896 68.9907 20.888 69.6947C21.848 70.3667 22.728 71.1827 23.528 72.1427C24.296 73.0707 24.872 73.9187 25.256 74.6867C26.024 74.7827 26.808 74.8467 27.608 74.8787C28.376 74.8787 29.144 74.8787 29.912 74.8787C30.296 74.8787 30.776 74.8627 31.352 74.8307C31.928 74.7667 32.44 74.6227 32.888 74.3987C33.336 74.1427 33.56 73.7267 33.56 73.1507C33.56 72.5427 33.288 71.9507 32.744 71.3747C32.2 70.7667 31.512 70.1907 30.68 69.6467C29.816 69.0707 28.92 68.5427 27.992 68.0627C27.064 67.5827 26.184 67.1667 25.352 66.8147C24.52 66.4627 23.88 66.2067 23.432 66.0467C23.272 65.9827 23.128 65.9027 23 65.8067C22.84 65.7107 22.76 65.5667 22.76 65.3747C22.76 65.1187 22.92 64.9907 23.24 64.9907C23.752 64.9907 24.488 65.1667 25.448 65.5187C26.376 65.8707 27.384 66.3507 28.472 66.9587C29.56 67.5347 30.6 68.1907 31.592 68.9267C32.584 69.6307 33.4 70.3507 34.04 71.0867C34.68 71.8227 35 72.5107 35 73.1507ZM23.768 74.4467C23.384 73.8387 22.904 73.2307 22.328 72.6227C21.752 72.0147 21.096 71.5027 20.36 71.0867C19.624 70.6707 18.888 70.4627 18.152 70.4627C17.768 70.4627 17.496 70.6547 17.336 71.0387C17.144 71.4227 17.032 71.7587 17 72.0467C17.992 72.6547 19.08 73.1667 20.264 73.5827C21.448 73.9667 22.616 74.2547 23.768 74.4467ZM34.856 63.8575C34.856 64.0815 34.776 64.2575 34.616 64.3855C34.456 64.5135 34.264 64.5775 34.04 64.5775C32.824 64.5775 31.608 64.5295 30.392 64.4335C29.144 64.3055 27.912 64.2415 26.696 64.2415C25.896 64.2415 24.888 64.2735 23.672 64.3375C22.424 64.3695 21.208 64.4815 20.024 64.6735C18.808 64.8335 17.88 65.1215 17.24 65.5375C17.176 65.5695 17.128 65.6015 17.096 65.6335C17.032 65.6655 16.968 65.6815 16.904 65.6815C16.712 65.6815 16.584 65.5855 16.52 65.3935C16.424 65.2015 16.376 65.0415 16.376 64.9135C16.376 64.4655 16.632 64.1135 17.144 63.8575C17.656 63.6015 18.312 63.4095 19.112 63.2815C19.912 63.1535 20.744 63.0735 21.608 63.0415C22.44 62.9775 23.208 62.9455 23.912 62.9455C24.584 62.9455 25.048 62.9455 25.304 62.9455C25.624 62.9455 25.928 62.9455 26.216 62.9455C26.504 62.9135 26.808 62.8975 27.128 62.8975C26.68 62.7695 25.992 62.5455 25.064 62.2255C24.136 61.9055 23.112 61.5215 21.992 61.0735C20.84 60.6255 19.752 60.1455 18.728 59.6335C17.672 59.0895 16.808 58.5615 16.136 58.0495C15.464 57.5055 15.128 56.9935 15.128 56.5135C15.128 56.0335 15.432 55.6815 16.04 55.4575C16.648 55.2335 17.304 55.0895 18.008 55.0255C18.712 54.9295 19.24 54.8815 19.592 54.8815C19.816 54.8815 20.2 54.8975 20.744 54.9295C21.256 54.9615 21.736 55.0415 22.184 55.1695C22.632 55.2655 22.856 55.4575 22.856 55.7455C22.856 56.0015 22.568 56.1295 21.992 56.1295C21.736 56.1295 21.496 56.1135 21.272 56.0815C21.048 56.0495 20.872 56.0335 20.744 56.0335C20.584 56.0335 20.216 56.0495 19.64 56.0815C19.032 56.1135 18.456 56.1935 17.912 56.3215C17.368 56.4175 17.096 56.5615 17.096 56.7535C17.096 56.9455 17.288 57.1855 17.672 57.4735C18.024 57.7295 18.456 58.0015 18.968 58.2895C19.448 58.5455 19.928 58.7855 20.408 59.0095C20.856 59.2015 21.176 59.3295 21.368 59.3935C22.552 59.8735 23.896 60.3855 25.4 60.9295C26.904 61.4415 28.424 61.8895 29.96 62.2735C31.464 62.6255 32.872 62.8015 34.184 62.8015C34.632 63.0255 34.856 63.3775 34.856 63.8575ZM34.376 51.0415C34.376 51.3295 34.28 51.5215 34.088 51.6175C33.864 51.6815 33.64 51.7135 33.416 51.7135C32.872 51.7135 32.328 51.6815 31.784 51.6175C31.208 51.5215 30.648 51.4735 30.104 51.4735C29.752 51.4735 29.192 51.5215 28.424 51.6175C27.656 51.7135 26.792 51.8575 25.832 52.0495C24.84 52.2095 23.88 52.4015 22.952 52.6255C21.992 52.8495 21.176 53.1055 20.504 53.3935C19.8 53.6495 19.352 53.9055 19.16 54.1615C19.064 54.2895 18.968 54.4015 18.872 54.4975C18.744 54.5935 18.6 54.6415 18.44 54.6415C18.12 54.6415 17.928 54.5295 17.864 54.3055C17.8 54.0815 17.768 53.8575 17.768 53.6335C17.768 53.2175 18.104 52.8335 18.776 52.4815C19.448 52.1295 20.296 51.8095 21.32 51.5215C22.344 51.2335 23.4 50.9935 24.488 50.8015C25.576 50.6095 26.552 50.4495 27.416 50.3215C28.248 50.1935 28.824 50.1135 29.144 50.0815C28.792 49.9215 28.168 49.6335 27.272 49.2175C26.344 48.8015 25.304 48.3215 24.152 47.7775C23 47.2015 21.896 46.6255 20.84 46.0495C19.752 45.4735 18.856 44.9615 18.152 44.5135C17.448 44.0335 17.096 43.6815 17.096 43.4575C17.096 43.1695 17.256 43.0255 17.576 43.0255L23.432 46.1455C25.16 46.9455 26.872 47.6815 28.568 48.3535C30.264 49.0255 32.008 49.6815 33.8 50.3215C33.96 50.3855 34.104 50.4655 34.232 50.5615C34.328 50.6575 34.376 50.8175 34.376 51.0415ZM16.136 39.6719C16.136 39.8959 16.088 40.1039 15.992 40.2959C15.864 40.4879 15.688 40.5839 15.464 40.5839C15.208 40.5839 14.824 40.4719 14.312 40.2479C13.768 40.0239 13.224 39.7359 12.68 39.3839C12.136 39.0319 11.672 38.6639 11.288 38.2799C10.904 37.8639 10.712 37.4959 10.712 37.1759C10.712 36.9199 10.872 36.7919 11.192 36.7919C11.576 36.7919 11.88 36.9999 12.104 37.4159C12.264 37.6719 12.568 37.8959 13.016 38.0879C13.464 38.2479 13.928 38.3919 14.408 38.5199C14.888 38.6159 15.272 38.7119 15.56 38.8079C15.944 38.9039 16.136 39.1919 16.136 39.6719ZM34.52 40.6319C34.52 41.3679 34.216 41.9119 33.608 42.2639C32.968 42.6159 32.248 42.8399 31.448 42.9359C30.616 43.0319 29.944 43.0799 29.432 43.0799C29.112 43.0799 28.52 43.0479 27.656 42.9839C26.792 42.8879 25.832 42.7759 24.776 42.6479C23.688 42.4879 22.632 42.3119 21.608 42.1199C20.584 41.8959 19.736 41.6399 19.064 41.3519C18.392 41.0639 18.056 40.7599 18.056 40.4399C18.056 40.1839 18.136 39.9599 18.296 39.7679C18.456 39.5759 18.664 39.4799 18.92 39.4799C19.304 39.4799 19.912 39.5919 20.744 39.8159C21.576 40.0399 22.52 40.3119 23.576 40.6319C24.632 40.9199 25.704 41.1919 26.792 41.4479C27.848 41.6719 28.808 41.7839 29.672 41.7839C29.896 41.7839 30.28 41.7679 30.824 41.7359C31.368 41.6719 31.88 41.5599 32.36 41.3999C32.808 41.2399 33.032 40.9839 33.032 40.6319C33.032 40.1519 32.68 39.6239 31.976 39.0479C31.272 38.4719 30.408 37.8959 29.384 37.3199C28.328 36.7119 27.288 36.1519 26.264 35.6399C25.208 35.1279 24.328 34.6959 23.624 34.3439C22.92 33.9919 22.568 33.7519 22.568 33.6239C22.568 33.4639 22.632 33.3679 22.76 33.3359C22.856 33.2719 22.968 33.2399 23.096 33.2399C23.512 33.2399 24.184 33.4159 25.112 33.7679C26.008 34.1199 27 34.5839 28.088 35.1599C29.144 35.7359 30.168 36.3599 31.16 37.0319C32.12 37.7039 32.92 38.3599 33.56 38.9999C34.2 39.6399 34.52 40.1839 34.52 40.6319ZM34.376 31.0446C34.376 32.0046 34.056 32.7566 33.416 33.3006C32.744 33.8446 31.96 34.2286 31.064 34.4526C30.136 34.6766 29.304 34.7886 28.568 34.7886C28.024 34.7886 27.176 34.7086 26.024 34.5486C24.84 34.3886 23.544 34.1486 22.136 33.8286C20.728 33.4766 19.368 33.0606 18.056 32.5806C16.744 32.1006 15.672 31.5406 14.84 30.9006C13.976 30.2606 13.544 29.5566 13.544 28.7886C13.544 28.2446 13.752 27.8446 14.168 27.5886C14.584 27.3326 15.112 27.1726 15.752 27.1086C16.36 27.0126 16.968 26.9646 17.576 26.9646C18.152 26.9646 18.632 26.9646 19.016 26.9646C19.176 26.9646 19.352 27.0766 19.544 27.3006C19.704 27.4926 19.784 27.6686 19.784 27.8286C19.784 28.1486 19.64 28.3566 19.352 28.4526C19.064 28.5486 18.744 28.5966 18.392 28.5966C18.04 28.5966 17.72 28.5806 17.432 28.5486C17.112 28.5166 16.872 28.5006 16.712 28.5006C16.552 28.5006 16.296 28.5326 15.944 28.5966C15.56 28.6606 15.368 28.7886 15.368 28.9806C15.56 29.4926 16.072 29.9726 16.904 30.4206C17.704 30.8686 18.664 31.2846 19.784 31.6686C20.904 32.0206 22.056 32.3246 23.24 32.5806C24.424 32.8046 25.512 32.9966 26.504 33.1566C27.464 33.2846 28.184 33.3486 28.664 33.3486C29.112 33.3486 29.688 33.3006 30.392 33.2046C31.064 33.0766 31.672 32.8526 32.216 32.5326C32.76 32.1806 33.032 31.7006 33.032 31.0926C33.032 30.4206 32.728 29.7486 32.12 29.0766C31.48 28.4046 30.696 27.7646 29.768 27.1566C28.84 26.5166 27.912 25.9406 26.984 25.4286C26.024 24.9166 25.24 24.5006 24.632 24.1806C23.992 23.8286 23.672 23.5886 23.672 23.4606C23.672 23.3006 23.752 23.2046 23.912 23.1726C24.072 23.1406 24.2 23.1406 24.296 23.1726L24.488 23.2206C25.192 23.4126 26.088 23.7646 27.176 24.2766C28.264 24.7886 29.368 25.4126 30.488 26.1486C31.576 26.8846 32.504 27.6846 33.272 28.5486C34.008 29.3806 34.376 30.2126 34.376 31.0446ZM35 19.6195C35 20.4835 34.616 21.1555 33.848 21.6355C33.08 22.0835 32.152 22.3875 31.064 22.5475C29.944 22.7075 28.904 22.7875 27.944 22.7875C27.496 22.7875 27.096 22.7875 26.744 22.7875C26.36 22.7555 26.04 22.7235 25.784 22.6915L25.784 22.8355C25.784 23.2195 25.64 23.4115 25.352 23.4115C25.192 23.3475 25.064 23.2355 24.968 23.0755C24.84 22.8835 24.76 22.7075 24.728 22.5475C23.32 22.3875 21.88 22.0835 20.408 21.6355C18.936 21.1875 17.608 20.5795 16.424 19.8115L16.136 19.8115C15.816 19.8115 15.624 19.6195 15.56 19.2355C15.4 19.0755 15.224 18.9155 15.032 18.7555C14.808 18.5635 14.696 18.3555 14.696 18.1315C14.696 17.8755 14.808 17.6835 15.032 17.5555C15.224 17.3955 15.432 17.3795 15.656 17.5075C15.784 16.8995 16.04 16.3555 16.424 15.8755C16.776 15.3635 17.304 15.1075 18.008 15.1075C18.936 15.1075 19.896 15.4595 20.888 16.1635C21.848 16.8355 22.728 17.6515 23.528 18.6115C24.296 19.5395 24.872 20.3875 25.256 21.1555C26.024 21.2515 26.808 21.3155 27.608 21.3475C28.376 21.3475 29.144 21.3475 29.912 21.3475C30.296 21.3475 30.776 21.3315 31.352 21.2995C31.928 21.2355 32.44 21.0915 32.888 20.8675C33.336 20.6115 33.56 20.1955 33.56 19.6195C33.56 19.0115 33.288 18.4195 32.744 17.8435C32.2 17.2355 31.512 16.6595 30.68 16.1155C29.816 15.5395 28.92 15.0115 27.992 14.5315C27.064 14.0515 26.184 13.6355 25.352 13.2835C24.52 12.9315 23.88 12.6755 23.432 12.5155C23.272 12.4515 23.128 12.3715 23 12.2755C22.84 12.1795 22.76 12.0355 22.76 11.8435C22.76 11.5875 22.92 11.4595 23.24 11.4595C23.752 11.4595 24.488 11.6355 25.448 11.9875C26.376 12.3395 27.384 12.8195 28.472 13.4275C29.56 14.0035 30.6 14.6595 31.592 15.3955C32.584 16.0995 33.4 16.8195 34.04 17.5555C34.68 18.2915 35 18.9795 35 19.6195ZM23.768 20.9155C23.384 20.3075 22.904 19.6995 22.328 19.0915C21.752 18.4835 21.096 17.9715 20.36 17.5555C19.624 17.1395 18.888 16.9315 18.152 16.9315C17.768 16.9315 17.496 17.1235 17.336 17.5075C17.144 17.8915 17.032 18.2275 17 18.5155C17.992 19.1235 19.08 19.6355 20.264 20.0515C21.448 20.4355 22.616 20.7235 23.768 20.9155ZM35.144 10.3742C35.144 10.9502 34.856 11.2382 34.28 11.2382C33.736 11.2382 33.128 11.0462 32.456 10.6622C31.752 10.2462 31.048 9.75025 30.344 9.17425C29.608 8.59825 28.936 8.02225 28.328 7.44625C27.72 6.83825 27.224 6.34225 26.84 5.95825C26.616 6.40625 26.424 6.96625 26.264 7.63825C26.072 8.27825 25.864 8.93425 25.64 9.60625C25.384 10.2462 25.064 10.7902 24.68 11.2382C24.264 11.6542 23.72 11.8622 23.048 11.8622C22.344 11.8622 21.544 11.6062 20.648 11.0942C19.752 10.5502 18.888 9.86225 18.056 9.03025C17.192 8.19825 16.488 7.35025 15.944 6.48625C15.368 5.62225 15.08 4.85425 15.08 4.18225C15.08 3.76625 15.192 3.36625 15.416 2.98225C15.608 2.56625 15.944 2.35825 16.424 2.35825C16.552 2.35825 16.728 2.39025 16.952 2.45425C17.176 2.51825 17.288 2.63025 17.288 2.79025C17.288 3.01425 17.176 3.20625 16.952 3.36625C16.696 3.49425 16.568 3.65425 16.568 3.84625C16.568 4.39025 16.792 5.04625 17.24 5.81425C17.688 6.55025 18.264 7.27025 18.968 7.97425C19.64 8.67825 20.344 9.27025 21.08 9.75025C21.816 10.1982 22.472 10.4222 23.048 10.4222C23.432 10.4222 23.768 10.1982 24.056 9.75025C24.344 9.30225 24.584 8.77425 24.776 8.16625C24.968 7.52625 25.16 6.90225 25.352 6.29425C25.512 5.68625 25.688 5.23825 25.88 4.95025C25.72 4.79025 25.464 4.51825 25.112 4.13425C24.76 3.75025 24.376 3.31825 23.96 2.83825C23.544 2.35825 23.192 1.92625 22.904 1.54225C22.616 1.12625 22.472 0.838248 22.472 0.678248C22.472 0.550248 22.536 0.486248 22.664 0.486248C22.824 0.486248 23.096 0.646248 23.48 0.966249C23.832 1.25425 24.216 1.62225 24.632 2.07025C25.048 2.48625 25.448 2.88625 25.832 3.27025C26.184 3.65425 26.44 3.92625 26.6 4.08625C27.08 3.79825 27.592 3.65425 28.136 3.65425C28.68 3.65425 29.352 3.89425 30.152 4.37425C30.92 4.85425 31.688 5.46225 32.456 6.19825C33.224 6.90225 33.864 7.63825 34.376 8.40625C34.888 9.17425 35.144 9.83025 35.144 10.3742ZM32.696 8.55025C32.696 8.26225 32.536 7.92625 32.216 7.54225C31.896 7.12625 31.496 6.72625 31.016 6.34225C30.536 5.95825 30.072 5.63825 29.624 5.38225C29.144 5.09425 28.76 4.95025 28.472 4.95025C28.152 4.95025 27.912 5.01425 27.752 5.14225C27.944 5.33425 28.248 5.63825 28.664 6.05425C29.08 6.43825 29.544 6.85425 30.056 7.30225C30.536 7.71825 31 8.08625 31.448 8.40625C31.864 8.69425 32.184 8.83825 32.408 8.83825C32.6 8.83825 32.696 8.74225 32.696 8.55025Z" fill="#F76934"/>
</svg>
